<?xml version="1.0" encoding="utf-8"?>
<!-- Generator: Adobe Illustrator 26.0.2, SVG Export Plug-In . SVG Version: 6.00 Build 0)  -->
<svg version="1.1" id="Layer_1" xmlns="http://www.w3.org/2000/svg" xmlns:xlink="http://www.w3.org/1999/xlink" x="0px" y="0px"
	 viewBox="0 0 358.3 99.5" style="enable-background:new 0 0 358.3 99.5;" xml:space="preserve">
<style type="text/css">
	.st0{fill:#232A5E;}
	.st1{fill:#FFFFFF;}
	.st2{fill:#D51F35;}
	.st3{enable-background:new    ;}
</style>
<rect x="86" y="70.8" class="st0" width="272.2" height="1.3"/>
<path class="st0" d="M92.8,19.8c0.1,0.6,0,1.3-0.2,1.9l0,0c-0.8,1.2-2.3,1.5-3.5,0.7c-0.3-0.2-0.5-0.4-0.7-0.7
	c-0.2-0.6-0.3-1.2-0.2-1.9V13H86v6.8c-0.1,1.1,0.1,2.2,0.6,3.2c1.8,2.2,5.1,2.4,7.3,0.6c0.2-0.2,0.4-0.4,0.6-0.6
	c0.5-1,0.7-2.1,0.6-3.2V13h-2.2L92.8,19.8z"/>
<path class="st0" d="M109.3,17c0,1.1,0,2.4,0,3.3v0.4l-0.7-1.1l-4.3-6.5l0,0h-2v11.6h2.2v-3.9c0-1.6,0-3.1,0-3.9l0,0
	c0.1,0.2,0.3,0.5,0.5,0.8l4.5,6.9l0,0h2V13.1h-2.2V17z"/>
<rect x="118.9" y="13.1" class="st0" width="2.2" height="11.6"/>
<path class="st0" d="M132.8,20.8l-0.3,1.1c-0.1-0.3-0.2-0.8-0.3-1.1l-2.3-7.8h-2.3l3.6,11.5v0.1h2.6l3.8-11.6h-2.2L132.8,20.8z"/>
<polygon class="st0" points="145.8,19.7 151.2,19.7 151.2,17.7 145.8,17.7 145.8,15.1 151.8,15.1 151.8,13.1 143.6,13.1 143.6,24.7 
	152.2,24.7 152.2,22.7 145.8,22.7 "/>
<path class="st0" d="M166.1,19.5c1-0.6,1.6-1.7,1.6-2.9c0.1-1.2-0.6-2.4-1.7-3c-0.9-0.4-1.9-0.6-2.9-0.5h-4.3v11.6h2.2v-4.6h1.9
	l2.6,4.6h2.6l-2.9-4.8C165.6,19.8,165.9,19.7,166.1,19.5z M161,15h2.1c0.5,0,1.1,0,1.6,0.2c0.5,0.3,0.8,0.8,0.7,1.3
	c0,0.5-0.3,1.1-0.7,1.3c-0.5,0.2-1,0.2-1.6,0.2H161V15z"/>
<path class="st0" d="M179.6,17.9l-1.4-0.3c-1.4-0.3-1.8-0.6-1.8-1.4c0-0.7,0.8-1.4,2-1.4c1.1,0,2.2,0.5,2.9,1.3l0.1,0.1l1.7-1.4
	l-0.1-0.1c-1.2-1.3-2.8-2-4.5-1.9c-2.6,0-4.4,1.5-4.4,3.5c0,2.3,1.9,3,3.5,3.4l1.5,0.3c1.1,0.3,1.9,0.6,1.9,1.4s-0.8,1.5-2.2,1.5
	c-1.3,0-2.6-0.6-3.3-1.7l-0.1-0.1l-1.9,1.3v0.1c1.2,1.6,3.1,2.4,5.1,2.4c2.9,0,4.7-1.4,4.7-3.6S181.9,18.4,179.6,17.9z"/>
<rect x="190" y="13.1" class="st0" width="2.2" height="11.6"/>
<polygon class="st0" points="198.5,15.1 201.8,15.1 201.8,24.7 204,24.7 204,15.1 207.4,15.1 207.4,13.1 198.5,13.1 "/>
<polygon class="st0" points="217.7,17.9 214.8,13.1 212.2,13.1 216.5,20 216.5,24.7 218.7,24.7 218.7,20 223.1,13.1 220.6,13.1 "/>
<path class="st0" d="M241.2,12.9c-3.3,0-5.5,2.4-5.5,6s2.1,6,5.5,6s5.5-2.3,5.5-6S244.5,12.9,241.2,12.9z M241.2,14.9
	c1.9,0,3.1,1.5,3.1,4s-1.2,4-3.1,4s-3.1-1.5-3.1-4S239.3,14.9,241.2,14.9z"/>
<polygon class="st0" points="260.5,15.1 260.5,13.1 252.9,13.1 252.9,24.7 255.1,24.7 255.1,19.8 260.3,19.8 260.3,17.8 255.1,17.8 
	255.1,15.1 "/>
<path class="st0" d="M90.6,55.5h-4.7V34.4h4.7V55.5z"/>
<path class="st0" d="M100.3,34.4v16.9h8.4v4.2H95.6V34.4H100.3z"/>
<path class="st0" d="M116.6,34.4v16.9h8.4v4.2h-13.1V34.4H116.6z"/>
<path class="st0" d="M132.9,55.5h-4.7V34.4h4.7V55.5z"/>
<path class="st0" d="M147.7,42.6c1.7,2.8,3.1,5.4,3.1,5.4l0,0c0,0-0.2-4.2-0.2-6.6v-7h4.6v21.1h-4.7l-5-8.1c-1.2-2-3.2-5.7-3.2-5.7
	l0,0c0,0,0.2,3.5,0.2,6.9v6.9h-4.6V34.4h4.7L147.7,42.6z"/>
<path class="st0" d="M169.5,34c6.2,0,10.2,4.4,10.2,10.9s-3.7,10.9-10.2,10.9s-10.2-4.5-10.2-10.9S163.3,34,169.5,34z M169.5,51.9
	c3.6,0,5.5-2.6,5.5-7s-2-7.1-5.5-7.1s-5.5,2.7-5.5,7.1S165.9,51.9,169.5,51.9z"/>
<path class="st0" d="M188.5,55.5h-4.7V34.4h4.7V55.5z"/>
<path class="st0" d="M206.4,40.2c-1.5-1.4-3.4-2.3-5.5-2.3c-2,0-3.3,0.8-3.3,2.1s1,1.9,2.9,2.3l3.4,0.7c3.9,0.8,6.4,2.3,6.4,6
	c0,4.4-3.9,6.8-8.9,6.8c-3.7,0.1-7.2-1.6-9.5-4.4l3.2-2.8c1.5,2,3.9,3.3,6.4,3.3c2.4,0,3.9-1,3.9-2.5s-1.2-1.9-3.2-2.2l-2.7-0.4
	c-3.9-0.8-6.8-2.1-6.8-6.3c0-3.8,3.5-6.4,8.1-6.4c3.2-0.1,6.2,1.1,8.5,3.3L206.4,40.2z"/>
<path class="st0" d="M239.7,50.8c-1.6,3.1-4.3,5-8.6,5c-6.3,0-10.1-4.5-10.1-10.9S225,34,231.1,34c3.7-0.2,7.2,2,8.7,5.4L236,41
	c-0.7-2-2.6-3.3-4.8-3.2c-3.5,0-5.5,2.7-5.5,7.1s1.9,7,5.5,7c2,0.1,3.9-1,4.7-2.9L239.7,50.8z"/>
<path class="st0" d="M247.9,46.7v8.8h-4.7V34.4h4.7v8.1h7.8v-8.1h4.7v21.1h-4.7v-8.8H247.9z"/>
<path class="st0" d="M270.2,55.5h-4.7V34.4h4.7V55.5z"/>
<path class="st0" d="M292.9,50.8c-1.6,3.1-4.3,5-8.6,5c-6.3,0-10.1-4.5-10.1-10.9s4-10.9,10.1-10.9c3.7-0.2,7.2,2,8.7,5.4l-3.9,1.6
	c-0.7-2-2.6-3.3-4.8-3.2c-3.5,0-5.5,2.7-5.5,7.1s1.9,7,5.5,7c2,0.1,3.9-1,4.6-2.9L292.9,50.8z"/>
<path class="st0" d="M299.4,55.5h-4.9l7.1-21.1h5.7l7,21.1h-5l-1.2-4.2h-7.4L299.4,55.5z M305.1,41.5c-0.4-1.3-0.7-2.7-0.7-2.7l0,0
	c0,0-0.4,1.4-0.8,2.8l-1.8,5.9h5L305.1,41.5z"/>
<path class="st0" d="M325.6,34c3.7-0.2,7.2,2,8.7,5.4l-3.9,1.6c-0.7-2-2.6-3.3-4.7-3.2c-3.5,0-5.5,2.7-5.5,7.1s2,7.2,5.5,7.2
	c3.1,0,4.5-2,4.7-4.5h-6v-4.1h10v12h-4.1v-1.9c-1.4,1.5-3.4,2.3-5.5,2.2c-5.8,0-9.3-4.5-9.3-10.9S319.5,34,325.6,34z"/>
<path class="st0" d="M348.1,34c6.2,0,10.2,4.4,10.2,10.9s-3.7,10.9-10.2,10.9s-10.2-4.5-10.2-10.9S341.9,34,348.1,34z M348.1,51.9
	c3.6,0,5.5-2.6,5.5-7s-2-7.1-5.5-7.1s-5.5,2.7-5.5,7.1S344.5,51.9,348.1,51.9z"/>
<rect x="31.8" y="24.2" class="st1" width="6.7" height="22.4"/>
<path class="st1" d="M21,37.5c0.1,1.1-0.1,2.2-0.8,3.2c-0.7,0.7-1.7,1-2.6,0.9c-1,0.1-1.9-0.2-2.6-0.9c-0.6-0.9-0.9-2.1-0.7-3.2
	V24.2H7.5v13.2c0,3.1,0.3,4.6,1.2,6.2c1.5,2.5,5.4,3.4,8.9,3.4s7.4-1,8.9-3.4c0.9-1.5,1.2-3,1.2-6.2V24.2H21V37.5z"/>
<path class="st1" d="M52.9,41.5c-2.9,0-4.3-2.3-4.3-6.2s1.5-6.2,4.3-6.2c2.1,0,3.3,1.3,3.9,3.5l5.8-2.8c-1.1-2.9-4.3-6-9.6-6
	c-7,0-11.3,4.7-11.3,11.6S45.7,47,52.8,47c5.1,0,8.3-2.5,9.9-6.1l-6.1-2.2C56.2,40.4,54.6,41.6,52.9,41.5z"/>
<path class="st2" d="M34.3,0C15.4,0,0,15.4,0,34.3s15.4,34.3,34.3,34.3s34.3-15.4,34.3-34.3l0,0C68.7,15.4,53.3,0,34.3,0z
	 M14.9,40.7c0.7,0.7,1.7,1,2.6,0.9c1,0.1,1.9-0.2,2.6-0.9c0.6-0.9,0.9-2.1,0.8-3.2V24.2h6.7v13.2c0,3.1-0.3,4.6-1.2,6.2
	C25,46,21,47,17.6,47s-7.4-1-8.9-3.4c-0.9-1.5-1.2-3-1.2-6.2V24.2h6.7v13.4C14.1,38.6,14.3,39.8,14.9,40.7z M31.7,46.6V24.2h6.7
	v22.4H31.7z M52.8,47c-7.1,0-11.1-4.8-11.1-11.6S46,23.8,53,23.8c5.3,0,8.5,3.1,9.6,6l-5.8,2.8c-0.6-2.2-1.8-3.5-3.9-3.5
	c-2.9,0-4.3,2.4-4.3,6.2s1.5,6.2,4.3,6.2c1.8,0.1,3.3-1.1,3.8-2.8l6.1,2.2C61.2,44.5,58,47,52.8,47L52.8,47z"/>
<g class="st3">
	<path class="st0" d="M88.7,89.5V95h-2.4V81.4h5c1.2,0,2.4,0,3.4,0.6c1.2,0.7,1.9,1.8,1.9,3.5c0,1.5-0.7,2.6-1.8,3.3
		c-0.3,0.2-0.7,0.4-1.1,0.5l3.4,5.7h-2.9l-3.2-5.4H88.7z M88.7,87.4h2.6c1,0,1.5-0.1,1.9-0.3c0.6-0.3,1-1,1-1.7c0-0.7-0.4-1.4-1-1.7
		c-0.4-0.2-0.9-0.3-1.9-0.3h-2.6V87.4z"/>
	<path class="st0" d="M107.2,92.8c-0.4,0.7-1.7,2.4-4.5,2.4c-2.8,0-4.7-2-4.7-5.1c0-2.9,2-4.9,4.7-4.9c3,0,4.5,2.1,4.5,5
		c0,0.2,0,0.4,0,0.6h-6.9c0.2,1.3,1,2.4,2.6,2.4c1.7,0,2.5-1.2,2.8-1.6L107.2,92.8z M100.2,89.1h4.6c-0.1-1.2-1-2.1-2.2-2.1
		C101.3,87.1,100.3,88,100.2,89.1z"/>
	<path class="st0" d="M115.2,88.2c-0.7-0.6-1.6-1.1-2.7-1.1c-0.9,0-1.6,0.3-1.6,0.9c0,0.7,0.7,0.8,2,1.1l1.1,0.3
		c1.4,0.3,2.7,0.9,2.7,2.6c0,2.2-2,3.2-4.2,3.2c-2.3,0-3.8-1.1-4.4-1.9l1.5-1.4c0.5,0.7,1.5,1.4,2.9,1.4c1.1,0,1.8-0.4,1.8-1.1
		c0-0.7-0.5-0.8-1.5-1l-1.4-0.3c-1.7-0.4-3-1.1-3-2.8c0-2.1,2-3,3.8-3c1.9,0,3.4,0.8,4,1.5L115.2,88.2z"/>
	<path class="st0" d="M127.4,92.8c-0.4,0.7-1.7,2.4-4.5,2.4c-2.8,0-4.7-2-4.7-5.1c0-2.9,2-4.9,4.7-4.9c3,0,4.5,2.1,4.5,5
		c0,0.2,0,0.4,0,0.6h-6.9c0.2,1.3,1,2.4,2.6,2.4c1.7,0,2.5-1.2,2.8-1.6L127.4,92.8z M120.5,89.1h4.6c-0.1-1.2-1-2.1-2.2-2.1
		C121.6,87.1,120.5,88,120.5,89.1z"/>
	<path class="st0" d="M137.1,92.8c0,0.6,0.1,0.8,0.6,0.8h0.1v1.5c-0.1,0-0.4,0.1-1.1,0.1c-0.9,0-1.5-0.2-1.7-1h0
		c-0.4,0.4-1.1,1-2.8,1c-1.8,0-3.4-0.9-3.4-3c0-0.7,0.2-1.3,0.5-1.7c0.6-0.7,1.6-1.1,2.8-1.3l2.1-0.4c0.5-0.1,0.6-0.1,0.6-0.5v-0.2
		c0-0.8-0.5-1.2-1.7-1.2c-1.3,0-1.9,0.5-1.9,1.7l-2.1-0.1c0-2.3,1.9-3.3,4.2-3.3c2.2,0,3.8,0.7,3.8,2.8V92.8z M134.9,91.6v-1.2
		c-0.3,0.1-0.6,0.2-1.3,0.3l-0.9,0.2c-1.1,0.2-1.6,0.5-1.6,1.3c0,0.8,0.5,1.3,1.6,1.3C134,93.5,134.9,92.9,134.9,91.6z"/>
	<path class="st0" d="M142,85.5v1.4c0.2-0.5,0.9-1.6,2.8-1.6c0.1,0,0.2,0,0.4,0v2.3c-0.2,0-0.4,0-0.6,0c-1.2,0-1.9,0.4-2.2,1.3
		c-0.2,0.5-0.3,1-0.3,1.9V95h-2.3v-9.5H142z"/>
	<path class="st0" d="M153.1,88.9c-0.3-1-1.1-1.7-2.2-1.7c-1.5,0-2.5,1.1-2.5,3s1,3,2.5,3c1.3,0,1.9-0.8,2.3-1.6l1.8,1
		c-0.4,1-1.7,2.6-4.2,2.6c-2.8,0-4.7-1.8-4.7-5c0-3.2,2.1-5,4.7-5c2.2,0,3.6,1.2,4.2,2.7L153.1,88.9z"/>
	<path class="st0" d="M165.3,95H163v-4.8c0-0.7,0-1.3-0.2-1.8c-0.2-0.7-0.7-1.1-1.7-1.1c-1.4,0-2.1,1.1-2.1,2.6V95h-2.3V81.4h2.3
		v5.3c0.4-0.8,1.5-1.5,3-1.5c1.1,0,2,0.3,2.6,1.2c0.4,0.6,0.6,1.3,0.6,3.2V95z"/>
	<path class="st0" d="M174.4,95H172V81.4h2.4V95z"/>
	<path class="st0" d="M185.5,95h-2.3v-4.8c0-0.7,0-1.3-0.2-1.8c-0.2-0.7-0.7-1.1-1.7-1.1c-1.4,0-2.1,1.1-2.1,2.6V95H177v-9.5h2.3
		v1.2c0.4-0.8,1.5-1.5,3-1.5c1.1,0,2,0.3,2.6,1.2c0.4,0.6,0.6,1.3,0.6,3.2V95z"/>
	<path class="st0" d="M193.3,87.2H191V95h-2.3v-7.7H187v-1.8h1.7v-1.1c0-0.8,0.1-1.3,0.3-1.8c0.4-0.9,1.3-1.3,2.8-1.3
		c0.7,0,1.2,0.1,1.5,0.1v1.8c-0.3,0-0.4,0-0.8,0c-0.7,0-1,0.1-1.3,0.4c-0.1,0.2-0.2,0.5-0.2,1v0.9h2.3V87.2z"/>
	<path class="st0" d="M198.9,85.2c2.9,0,4.8,2,4.8,5c0,3-1.8,5-4.8,5s-4.8-1.9-4.8-5C194.2,87.2,196,85.2,198.9,85.2z M198.9,93.3
		c1.5,0,2.5-1.2,2.5-3c0-1.9-1-3-2.5-3s-2.5,1.1-2.5,3S197.5,93.3,198.9,93.3z"/>
	<path class="st0" d="M207.9,85.5v1.4c0.2-0.5,0.9-1.6,2.8-1.6c0.1,0,0.2,0,0.4,0v2.3c-0.2,0-0.4,0-0.6,0c-1.2,0-1.9,0.4-2.2,1.3
		c-0.2,0.5-0.3,1-0.3,1.9V95h-2.3v-9.5H207.9z"/>
	<path class="st0" d="M220.8,86.7c0.6-0.7,1.5-1.5,3.3-1.5c1.2,0,2,0.4,2.5,0.9c0.6,0.7,0.8,1.3,0.8,3.4V95h-2.3v-4.8
		c0-1.7-0.1-2.9-1.8-2.9c-1.4,0-2.1,1.1-2.1,2.6V95H219v-4.8c0-1.7-0.1-2.9-1.8-2.9c-1.4,0-2.1,1.1-2.1,2.6V95h-2.3v-9.5h2.3v1.2
		c0.5-0.8,1.5-1.5,3-1.5c1,0,1.8,0.3,2.4,0.9C220.6,86.3,220.7,86.5,220.8,86.7z"/>
	<path class="st0" d="M237.6,92.8c0,0.6,0.1,0.8,0.6,0.8h0.1v1.5c-0.1,0-0.4,0.1-1.1,0.1c-0.9,0-1.5-0.2-1.7-1h0
		c-0.4,0.4-1.1,1-2.8,1c-1.8,0-3.4-0.9-3.4-3c0-0.7,0.2-1.3,0.5-1.7c0.6-0.7,1.6-1.1,2.8-1.3l2.1-0.4c0.5-0.1,0.6-0.1,0.6-0.5v-0.2
		c0-0.8-0.5-1.2-1.7-1.2c-1.3,0-1.9,0.5-1.9,1.7l-2.1-0.1c0-2.3,1.9-3.3,4.2-3.3c2.2,0,3.8,0.7,3.8,2.8V92.8z M235.4,91.6v-1.2
		c-0.3,0.1-0.6,0.2-1.3,0.3l-0.9,0.2c-1.1,0.2-1.6,0.5-1.6,1.3c0,0.8,0.5,1.3,1.6,1.3C234.5,93.5,235.4,92.9,235.4,91.6z"/>
	<path class="st0" d="M245.6,95.1c-0.4,0.1-1,0.2-1.7,0.2c-0.9,0-1.9-0.2-2.4-0.8c-0.4-0.5-0.4-1-0.4-1.9v-5.2h-2v-1.8h2v-3.3
		l2.3-0.5v3.8h2.2v1.8h-2.2v4.9c0,0.5,0.1,0.8,0.3,1c0.2,0.2,0.6,0.3,1,0.3c0.4,0,0.8,0,1-0.1V95.1z"/>
	<path class="st0" d="M249.7,83.7h-2.3v-2.3h2.3V83.7z M249.7,95h-2.3v-9.5h2.3V95z"/>
	<path class="st0" d="M258.6,88.9c-0.3-1-1.1-1.7-2.2-1.7c-1.5,0-2.5,1.1-2.5,3s1,3,2.5,3c1.3,0,1.9-0.8,2.3-1.6l1.8,1
		c-0.4,1-1.7,2.6-4.2,2.6c-2.8,0-4.7-1.8-4.7-5c0-3.2,2.1-5,4.7-5c2.2,0,3.6,1.2,4.2,2.7L258.6,88.9z"/>
	<path class="st0" d="M268.4,88.2c-0.7-0.6-1.6-1.1-2.7-1.1c-0.9,0-1.6,0.3-1.6,0.9c0,0.7,0.7,0.8,2,1.1l1.1,0.3
		c1.4,0.3,2.7,0.9,2.7,2.6c0,2.2-2,3.2-4.2,3.2c-2.3,0-3.8-1.1-4.4-1.9l1.5-1.4c0.5,0.7,1.5,1.4,2.9,1.4c1.1,0,1.8-0.4,1.8-1.1
		c0-0.7-0.5-0.8-1.5-1l-1.4-0.3c-1.7-0.4-3-1.1-3-2.8c0-2.1,2-3,3.8-3c1.9,0,3.4,0.8,4,1.5L268.4,88.2z"/>
	<path class="st0" d="M287.5,91.9c-0.6,1.3-2.2,3.4-5.6,3.4c-4.2,0-6.5-2.9-6.5-7c0-4.2,2.5-7,6.5-7c3.2,0,4.7,1.9,5.4,3.1l-2.1,1.3
		c-0.7-1.4-1.7-2.3-3.3-2.3c-2.4,0-3.8,1.9-3.8,4.9c0,3,1.4,4.8,3.8,4.8c1.5,0,2.6-0.8,3.3-2.1L287.5,91.9z"/>
	<path class="st0" d="M293.5,85.2c2.9,0,4.8,2,4.8,5c0,3-1.8,5-4.8,5s-4.8-1.9-4.8-5C288.7,87.2,290.6,85.2,293.5,85.2z M293.5,93.3
		c1.5,0,2.5-1.2,2.5-3c0-1.9-1-3-2.5-3s-2.5,1.1-2.5,3S292,93.3,293.5,93.3z"/>
	<path class="st0" d="M302.5,85.5v1.4c0.2-0.5,0.9-1.6,2.8-1.6c0.1,0,0.2,0,0.4,0v2.3c-0.2,0-0.4,0-0.6,0c-1.2,0-1.9,0.4-2.2,1.3
		c-0.2,0.5-0.3,1-0.3,1.9V95h-2.3v-9.5H302.5z"/>
	<path class="st0" d="M315.9,92.8c-0.4,0.7-1.7,2.4-4.5,2.4c-2.8,0-4.7-2-4.7-5.1c0-2.9,2-4.9,4.7-4.9c3,0,4.5,2.1,4.5,5
		c0,0.2,0,0.4,0,0.6h-6.9c0.2,1.3,1,2.4,2.6,2.4c1.7,0,2.5-1.2,2.8-1.6L315.9,92.8z M308.9,89.1h4.6c-0.1-1.2-1-2.1-2.2-2.1
		C310,87.1,309,88,308.9,89.1z"/>
</g>
</svg>
